<svg width="42" height="42" viewBox="0 0 42 42" fill="none" xmlns="http://www.w3.org/2000/svg">
  <!-- Background Circle -->
  <path opacity="0.15" fill-rule="evenodd" clip-rule="evenodd" d="M21 41C32.0457 41 41 32.0457 41 21C41 9.9543 32.0457 1 21 1C9.9543 1 1 9.9543 1 21C1 32.0457 9.9543 41 21 41ZM21 39C30.9411 39 39 30.9411 39 21C39 11.0589 30.9411 3 21 3C11.0589 3 3 11.0589 3 21C3 30.9411 11.0589 39 21 39Z" fill="url(#paint0_linear)"/>

  <!-- Neural Network Nodes -->
  <circle cx="14" cy="14" r="3" fill="url(#paint1_linear)"/>
  <circle cx="28" cy="14" r="3" fill="url(#paint1_linear)"/>
  <circle cx="21" cy="21" r="3" fill="url(#paint1_linear)"/>
  <circle cx="14" cy="28" r="3" fill="url(#paint1_linear)"/>
  <circle cx="28" cy="28" r="3" fill="url(#paint1_linear)"/>

  <!-- Neural Network Connections -->
  <path d="M14 14L21 21M21 21L28 14M21 21L14 28M21 21L28 28" stroke="url(#paint2_linear)" stroke-width="2" stroke-linecap="round"/>

  <!-- Gradient Definitions -->
  <defs>
    <linearGradient id="paint0_linear" x1="21" y1="1" x2="21" y2="41" gradientUnits="userSpaceOnUse">
      <stop offset="0.259336" stop-color="hsl(45, 100%, 71%)"/>
      <stop offset="1" stop-color="hsl(35, 100%, 65%)"/>
    </linearGradient>
    <linearGradient id="paint1_linear" x1="21" y1="11" x2="21" y2="31" gradientUnits="userSpaceOnUse">
      <stop offset="0.259336" stop-color="hsl(45, 100%, 71%)"/>
      <stop offset="1" stop-color="hsl(35, 100%, 65%)"/>
    </linearGradient>
    <linearGradient id="paint2_linear" x1="14" y1="14" x2="28" y2="28" gradientUnits="userSpaceOnUse">
      <stop offset="0.259336" stop-color="hsl(45, 100%, 71%)"/>
      <stop offset="1" stop-color="hsl(35, 100%, 65%)"/>
    </linearGradient>
  </defs>
</svg>